<svg width="20" height="20" viewBox="0 0 20 20" fill="none" xmlns="http://www.w3.org/2000/svg">
<path d="M6.66663 15L9.99996 12.4583L13.3333 15L12.0833 10.875L15.4166 8.50001H11.3333L9.99996 4.16667L8.66663 8.50001H4.58329L7.91663 10.875L6.66663 15ZM9.99996 18.3333C8.84718 18.3333 7.76385 18.1146 6.74996 17.6771C5.73607 17.2396 4.85413 16.6458 4.10413 15.8958C3.35413 15.1458 2.76038 14.2639 2.32288 13.25C1.88538 12.2361 1.66663 11.1528 1.66663 10C1.66663 8.84723 1.88538 7.76389 2.32288 6.75001C2.76038 5.73612 3.35413 4.85417 4.10413 4.10417C4.85413 3.35417 5.73607 2.76042 6.74996 2.32292C7.76385 1.88542 8.84718 1.66667 9.99996 1.66667C11.1527 1.66667 12.2361 1.88542 13.25 2.32292C14.2638 2.76042 15.1458 3.35417 15.8958 4.10417C16.6458 4.85417 17.2395 5.73612 17.677 6.75001C18.1145 7.76389 18.3333 8.84723 18.3333 10C18.3333 11.1528 18.1145 12.2361 17.677 13.25C17.2395 14.2639 16.6458 15.1458 15.8958 15.8958C15.1458 16.6458 14.2638 17.2396 13.25 17.6771C12.2361 18.1146 11.1527 18.3333 9.99996 18.3333Z" fill="white"/>
</svg>
