<svg width="184" height="49" viewBox="0 0 184 49" fill="none" xmlns="http://www.w3.org/2000/svg">
<path d="M162.97 13.545C164.05 13.545 165.07 14.58 166.03 16.65C167.44 15.18 169.18 14.445 171.25 14.445C173.35 14.445 174.925 14.91 175.975 15.84C177.025 16.74 177.55 18.03 177.55 19.71C177.55 21.36 177.325 23.04 176.875 24.75C176.455 26.46 176.14 27.69 175.93 28.44C175.75 29.16 175.66 29.76 175.66 30.24C175.66 30.72 175.825 30.96 176.155 30.96C176.605 30.96 177.16 30.675 177.82 30.105C178.48 29.535 179.14 28.92 179.8 28.26C180.46 27.57 181.06 26.94 181.6 26.37C182.17 25.8 182.56 25.515 182.77 25.515C183.19 25.515 183.4 26.025 183.4 27.045C183.4 29.145 182.365 31.17 180.295 33.12C176.815 35.16 174.595 36.18 173.635 36.18C173.545 36.18 173.485 36.165 173.455 36.135C171.055 36.135 169.855 34.215 169.855 30.375C169.855 28.725 170.005 27.21 170.305 25.83C170.635 24.45 170.875 23.445 171.025 22.815C171.175 22.185 171.25 21.54 171.25 20.88C171.25 19.8 170.62 19.26 169.36 19.26C168.13 19.26 166.945 20.19 165.805 22.05C164.695 23.88 163.945 25.785 163.555 27.765V28.08C163.555 29.1 163.705 30.15 164.005 31.23C164.335 32.31 164.5 33.06 164.5 33.48C164.5 34.5 163.225 35.505 160.675 36.495C160.285 36.645 159.94 36.72 159.64 36.72C158.89 36.72 158.365 36.33 158.065 35.55C157.795 34.77 157.66 33.555 157.66 31.905C157.66 27.645 157.825 24.57 158.155 22.68C158.605 19.86 159.625 17.235 161.215 14.805C161.755 13.965 162.34 13.545 162.97 13.545Z" fill="#5E9833"/>
<path d="M149.289 36.135C146.289 36.135 144.789 33.33 144.789 27.72C144.789 24.66 145.164 21.885 145.914 19.395C147.084 15.555 148.404 13.635 149.874 13.635C150.744 13.635 151.434 14.22 151.944 15.39C152.364 16.29 152.559 17.175 152.529 18.045C152.529 19.245 152.169 21.36 151.449 24.39C150.759 27.03 150.414 28.665 150.414 29.295C150.414 29.925 150.564 30.36 150.864 30.6C151.194 30.84 151.569 30.96 151.989 30.96C152.439 30.96 152.994 30.675 153.654 30.105C154.314 29.535 154.974 28.92 155.634 28.26C156.294 27.57 156.894 26.94 157.434 26.37C158.004 25.8 158.394 25.515 158.604 25.515C159.024 25.515 159.234 26.025 159.234 27.045C159.234 29.145 158.169 31.2 156.039 33.21C153.939 35.19 151.689 36.165 149.289 36.135ZM151.134 9.99C150.324 8.79 149.919 7.5 149.919 6.12C149.919 4.74 150.129 3.6 150.549 2.7C150.999 1.77 151.419 1.095 151.809 0.674999C152.199 0.225 152.649 0 153.159 0C153.999 0 154.764 0.63 155.454 1.89C156.144 3.12 156.489 4.155 156.489 4.995C156.489 6.555 155.934 7.785 154.824 8.685C153.744 9.555 152.514 9.99 151.134 9.99Z" fill="#5E9833"/>
<path d="M136.83 36.135C132.54 36.165 129.615 34.56 128.055 31.32C127.515 30.18 127.245 28.755 127.245 27.045C127.245 25.305 127.395 23.46 127.695 21.51C128.295 17.61 129.45 14.01 131.16 10.71C132.03 9.02999 133.005 7.58999 134.085 6.38999C136.455 3.74999 139.095 2.44499 142.005 2.47499C143.295 2.47499 144.3 2.83499 145.02 3.555C145.77 4.245 146.145 5.24999 146.145 6.56999C146.145 7.88999 145.755 9.225 144.975 10.575C144.195 11.895 143.19 13.275 141.96 14.715C140.76 16.125 139.425 17.61 137.955 19.17C136.485 20.73 135.045 22.425 133.635 24.255V26.055C133.635 27.735 133.995 28.965 134.715 29.745C135.435 30.525 136.275 30.915 137.235 30.915C139.815 30.915 142.095 29.64 144.075 27.09C144.885 26.04 145.5 25.515 145.92 25.515C146.34 25.515 146.55 26.025 146.55 27.045C146.55 28.065 146.265 29.115 145.695 30.195C145.155 31.245 144.435 32.22 143.535 33.12C142.635 33.99 141.6 34.71 140.43 35.28C139.26 35.85 138.06 36.135 136.83 36.135ZM139.26 11.97C139.89 11.19 140.385 10.485 140.745 9.85499C141.105 9.22499 141.285 8.57999 141.285 7.91999C141.285 7.22999 141.045 6.88499 140.565 6.88499C139.515 6.88499 138.345 7.96499 137.055 10.125C135.795 12.285 134.85 15.12 134.22 18.63C135.24 17.07 136.17 15.765 137.01 14.715C137.88 13.665 138.63 12.75 139.26 11.97Z" fill="#5E9833"/>
<path d="M120.541 32.175C118.171 34.965 115.321 36.36 111.991 36.36C108.691 36.36 106.216 35.52 104.566 33.84C102.916 32.13 102.106 30.015 102.136 27.495C102.106 23.925 103.231 20.85 105.511 18.27C107.791 15.69 110.776 14.4 114.466 14.4C116.146 14.4 117.496 14.61 118.516 15.03C120.286 15.75 121.171 16.425 121.171 17.055C121.171 17.535 119.926 17.79 117.436 17.82C114.976 17.82 112.906 18.675 111.226 20.385C109.576 22.065 108.751 24.195 108.751 26.775C108.751 28.125 109.141 29.265 109.921 30.195C110.731 31.095 111.856 31.545 113.296 31.545C114.766 31.545 115.981 31.245 116.941 30.645C114.811 29.205 113.746 27.12 113.746 24.39C113.716 22.95 114.226 21.645 115.276 20.475C116.356 19.275 117.721 18.675 119.371 18.675C121.051 18.645 122.251 19.095 122.971 20.025C123.691 20.955 124.051 22.155 124.051 23.625C124.051 25.065 123.706 26.595 123.016 28.215H123.286C124.606 28.185 125.746 27.72 126.706 26.82C127.066 26.46 127.366 26.145 127.606 25.875C127.876 25.605 128.146 25.47 128.416 25.47C128.836 25.47 129.046 25.965 129.046 26.955C129.046 28.785 128.506 30.165 127.426 31.095C126.346 31.995 125.146 32.445 123.826 32.445C122.536 32.445 121.441 32.355 120.541 32.175ZM120.136 26.955C120.646 25.875 120.901 24.825 120.901 23.805C120.901 22.785 120.571 22.275 119.911 22.275C119.641 22.275 119.416 22.47 119.236 22.86C119.056 23.25 118.966 23.625 118.966 23.985C118.966 25.185 119.356 26.175 120.136 26.955Z" fill="#5E9833"/>
<path d="M93.8 15.525C94.22 14.205 94.895 13.545 95.825 13.545C96.665 13.575 97.46 14.175 98.21 15.345C98.96 16.485 99.335 17.37 99.335 18C99.275 19.23 98.9 21.195 98.21 23.895C97.52 26.565 96.545 30.045 95.285 34.335C97.265 32.805 99.215 30.81 101.135 28.35C101.795 27.51 102.35 26.835 102.8 26.325C103.28 25.785 103.67 25.515 103.97 25.515C104.39 25.515 104.6 25.995 104.6 26.955C104.6 28.845 103.535 31.05 101.405 33.57C99.305 36.09 96.725 38.055 93.665 39.465C93.305 40.665 92.915 41.805 92.495 42.885C92.075 43.965 91.535 44.91 90.875 45.72C89.435 47.46 87.245 48.33 84.305 48.33C82.325 48.33 80.63 47.76 79.22 46.62C77.84 45.48 77.15 44.055 77.15 42.345C77.15 41.415 77.45 40.68 78.05 40.14C78.68 39.6 79.535 39.165 80.615 38.835C81.695 38.505 82.955 38.22 84.395 37.98C85.865 37.74 87.425 37.44 89.075 37.08C89.225 36.57 89.345 36.075 89.435 35.595C89.555 35.085 89.675 34.575 89.795 34.065C88.145 35.595 86.12 36.36 83.72 36.36C81.35 36.36 79.52 35.7 78.23 34.38C76.94 33.06 76.31 31.455 76.34 29.565C76.34 24.465 78.035 20.445 81.425 17.505C83.765 15.495 86.195 14.49 88.715 14.49C89.585 14.49 90.515 14.595 91.505 14.805C92.525 15.015 93.29 15.255 93.8 15.525ZM82.955 28.08C82.955 30.39 83.81 31.545 85.52 31.545C86.48 31.545 87.455 31.185 88.445 30.465C89.435 29.745 90.23 28.575 90.83 26.955C91.28 24.855 91.745 22.92 92.225 21.15C92.735 19.38 93.08 18.15 93.26 17.46C90.74 17.79 88.385 18.915 86.195 20.835C84.035 22.755 82.955 25.17 82.955 28.08ZM87.68 41.22C86.6 41.43 85.655 41.595 84.845 41.715C84.035 41.835 83.36 41.94 82.82 42.03C82.31 42.12 81.92 42.225 81.65 42.345C81.41 42.465 81.29 42.66 81.29 42.93C81.29 43.47 81.62 43.935 82.28 44.325C82.97 44.715 83.645 44.895 84.305 44.865C85.445 44.865 86.57 43.65 87.68 41.22Z" fill="#5E9833"/>
<path d="M58.3801 13.545C59.4601 13.545 60.4801 14.58 61.4401 16.65C62.8501 15.18 64.5901 14.445 66.6601 14.445C68.7601 14.445 70.3351 14.91 71.3851 15.84C72.4351 16.74 72.9601 18.03 72.9601 19.71C72.9601 21.36 72.7351 23.04 72.2851 24.75C71.8651 26.46 71.5501 27.69 71.3401 28.44C71.1601 29.16 71.0701 29.76 71.0701 30.24C71.0701 30.72 71.2351 30.96 71.5651 30.96C72.0151 30.96 72.5701 30.675 73.2301 30.105C73.8901 29.535 74.5501 28.92 75.2101 28.26C75.8701 27.57 76.4701 26.94 77.0101 26.37C77.5801 25.8 77.9701 25.515 78.1801 25.515C78.6001 25.515 78.8101 26.025 78.8101 27.045C78.8101 29.145 77.7751 31.17 75.7051 33.12C72.2251 35.16 70.0051 36.18 69.0451 36.18C68.9551 36.18 68.8951 36.165 68.8651 36.135C66.4651 36.135 65.2651 34.215 65.2651 30.375C65.2651 28.725 65.4151 27.21 65.7151 25.83C66.0451 24.45 66.2851 23.445 66.4351 22.815C66.5851 22.185 66.6601 21.54 66.6601 20.88C66.6601 19.8 66.0301 19.26 64.7701 19.26C63.5401 19.26 62.3551 20.19 61.2151 22.05C60.1051 23.88 59.3551 25.785 58.9651 27.765V28.08C58.9651 29.1 59.1151 30.15 59.4151 31.23C59.7451 32.31 59.9101 33.06 59.9101 33.48C59.9101 34.5 58.6351 35.505 56.0851 36.495C55.6951 36.645 55.3501 36.72 55.0501 36.72C54.3001 36.72 53.7751 36.33 53.4751 35.55C53.2051 34.77 53.0701 33.555 53.0701 31.905C53.0701 27.645 53.2351 24.57 53.5651 22.68C54.0151 19.86 55.0351 17.235 56.6251 14.805C57.1651 13.965 57.7501 13.545 58.3801 13.545Z" fill="#5E9833"/>
<path d="M53.8337 25.38C54.3737 25.38 54.6437 26.07 54.6437 27.45C54.6437 28.2 54.3287 29.115 53.6987 30.195C53.0687 31.245 52.2437 32.22 51.2237 33.12C50.2337 33.99 49.1237 34.71 47.8937 35.28C46.6637 35.85 45.4637 36.135 44.2937 36.135C42.7037 36.135 41.6387 34.74 41.0987 31.95C40.3187 33.24 39.2987 34.305 38.0387 35.145C36.7787 35.955 35.0837 36.36 32.9537 36.36C30.8537 36.36 29.1587 35.7 27.8687 34.38C26.5787 33.06 25.9487 31.455 25.9787 29.565C25.9787 24.465 27.6737 20.445 31.0637 17.505C32.5037 16.275 33.8387 15.465 35.0687 15.075C36.3287 14.685 37.6487 14.49 39.0287 14.49C40.4087 14.49 41.5337 14.73 42.4037 15.21C42.8237 14.34 43.3037 13.905 43.8437 13.905C44.8937 13.905 45.8837 14.37 46.8137 15.3C47.7737 16.2 48.2537 17.055 48.2537 17.865C47.8337 18.855 47.2187 20.04 46.4087 21.42C46.1687 22.8 46.0487 24.735 46.0487 27.225C46.0487 29.715 46.3637 30.96 46.9937 30.96C47.7737 30.96 49.6637 29.4 52.6637 26.28C53.2037 25.68 53.5937 25.38 53.8337 25.38ZM32.5937 28.08C32.5937 30.39 33.4487 31.545 35.1587 31.545C36.9887 31.515 38.5037 30.54 39.7037 28.62C40.1237 27.96 40.4687 27.15 40.7387 26.19C40.7387 22.83 41.0387 19.95 41.6387 17.55C39.2087 18.03 37.0937 19.2 35.2937 21.06C33.4937 22.92 32.5937 25.26 32.5937 28.08Z" fill="#5E9833"/>
<path d="M7.605 34.02C7.605 35.79 5.88 36.675 2.43 36.675C1.68 36.675 1.23 36.3 1.08 35.55C0.96 34.77 0.9 33.69 0.9 32.31C0.9 29.4 1.485 25.8 2.655 21.51C4.605 14.43 6.69 10.26 8.91 8.99999C9.21 8.81999 9.54 8.72999 9.9 8.72999C10.26 8.72999 10.44 9.31499 10.44 10.485C10.44 11.655 10.38 12.69 10.26 13.59C10.02 15.39 9.585 17.715 8.955 20.565C8.355 23.415 8.055 25.095 8.055 25.605L7.605 34.02ZM10.665 21.915C10.665 21.525 10.875 21.27 11.295 21.15C11.745 21.03 12.3 20.925 12.96 20.835C13.62 20.715 14.34 20.55 15.12 20.34C15.9 20.13 16.62 19.74 17.28 19.17C18.81 17.85 19.575 15.645 19.575 12.555C19.575 10.575 18.9 9.05999 17.55 8.00999C16.23 6.95999 14.31 6.43499 11.79 6.43499C9.3 6.43499 6.96 6.95999 4.77 8.00999C3.96 8.39999 3.225 8.75999 2.565 9.08999C1.935 9.41999 1.35 9.58499 0.81 9.58499C0.27 9.58499 0 9.41999 0 9.08999C0 8.57999 0.495 7.73999 1.485 6.56999C2.475 5.48999 4.035 4.48499 6.165 3.55499C8.325 2.62499 10.59 2.15999 12.96 2.15999C17.43 2.12999 20.91 3.17999 23.4 5.30999C25.56 7.16999 26.64 9.58499 26.64 12.555C26.64 15.495 25.575 18.135 23.445 20.475C21.315 22.785 18.645 23.94 15.435 23.94C12.255 23.94 10.665 23.265 10.665 21.915Z" fill="#5E9833"/>
</svg>
